<?xml version="1.0" encoding="utf-8"?>
<svg viewBox="0 0 500 500" xmlns="http://www.w3.org/2000/svg" xmlns:bx="https://boxy-svg.com">
  <defs>
    <clipPath id="clip-0">
      <path d="M 250 8.232 L 491.768 250 L 250 491.768 L 8.232 250 Z" style="stroke: rgb(230, 213, 41); fill: rgb(255, 233, 0); stroke-width: 10px;" bx:shape="n-gon 250 250 241.768 241.768 4 0 1@d56f40f7"/>
    </clipPath>
    <clipPath id="clip-2">
      <path d="M 250 8.232 L 491.768 250 L 250 491.768 L 8.232 250 Z" style="stroke: rgb(230, 213, 41); fill: rgb(255, 233, 0); stroke-width: 10px;" bx:shape="n-gon 250 250 241.768 241.768 4 0 1@d56f40f7"/>
    </clipPath>
    <clipPath id="clip-1">
      <path d="M 250 8.232 L 491.768 250 L 250 491.768 L 8.232 250 Z" style="stroke: rgb(230, 213, 41); fill: rgb(255, 233, 0); stroke-width: 10px;" bx:shape="n-gon 250 250 241.768 241.768 4 0 1@d56f40f7"/>
    </clipPath>
    <clipPath id="clip-3">
      <path d="M 250 8.232 L 491.768 250 L 250 491.768 L 8.232 250 Z" style="stroke: rgb(230, 213, 41); fill: rgb(255, 233, 0); stroke-width: 10px;" bx:shape="n-gon 250 250 241.768 241.768 4 0 1@d56f40f7"/>
    </clipPath>
  </defs>
  <g style="" transform="matrix(1.0066150426864624, 0, 0, 1.0066150426864624, -1.6538441427624946, -1.6538441427625088)">
    <path d="M 250 175.572 L 324.428 250 L 250 324.428 L 175.572 250 Z" style="stroke: rgb(230, 213, 41); fill: rgb(255, 233, 0); stroke-width: 10px;" bx:shape="n-gon 250 250 74.428 74.428 4 0 1@6a89604d"/>
    <ellipse style="stroke: rgb(230, 213, 41); stroke-width: 10px; fill: rgb(255, 233, 0); clip-path: url('#clip-0');" cx="250" cy="440" rx="121.072" ry="121.072"/>
    <ellipse style="stroke: rgb(230, 213, 41); stroke-width: 10px; fill: rgb(255, 233, 0); clip-path: url('#clip-2');" cx="250" cy="60" rx="121.072" ry="121.072"/>
    <ellipse style="stroke: rgb(230, 213, 41); stroke-width: 10px; fill: rgb(255, 233, 0); clip-path: url('#clip-1');" cx="440" cy="250" rx="121.072" ry="121.072"/>
    <ellipse style="stroke: rgb(230, 213, 41); stroke-width: 10px; fill: rgb(255, 233, 0); clip-path: url('#clip-3');" cx="60" cy="250" rx="121.072" ry="121.072"/>
  </g>
</svg>