<?xml version="1.0" encoding="utf-8"?>
<!-- Generator: Adobe Illustrator 16.0.0, SVG Export Plug-In . SVG Version: 6.00 Build 0)  -->
<!DOCTYPE svg PUBLIC "-//W3C//DTD SVG 1.1//EN" "http://www.w3.org/Graphics/SVG/1.1/DTD/svg11.dtd">
<svg version="1.1" id="Layer_1" xmlns="http://www.w3.org/2000/svg" xmlns:xlink="http://www.w3.org/1999/xlink" x="0px" y="0px"
	 width="608.354px" height="188.245px" viewBox="0 0 608.354 188.245" enable-background="new 0 0 608.354 188.245"
	 xml:space="preserve">
<g>
	<g>
		<g>
			<linearGradient id="SVGID_1_" gradientUnits="userSpaceOnUse" x1="445.1621" y1="119.1631" x2="466.1683" y2="0.0312">
				<stop  offset="0" style="stop-color:#FFFFFF"/>
				<stop  offset="0.0844" style="stop-color:#FFFEF6"/>
				<stop  offset="0.2237" style="stop-color:#FFFCDD"/>
				<stop  offset="0.4008" style="stop-color:#FEF8B4"/>
				<stop  offset="0.6086" style="stop-color:#FEF37B"/>
				<stop  offset="0.8394" style="stop-color:#FDEC34"/>
				<stop  offset="0.9946" style="stop-color:#FDE700"/>
			</linearGradient>
			<path fill-rule="evenodd" clip-rule="evenodd" fill="url(#SVGID_1_)" d="M414.126,52.277c-7.658,0.72-14.052,2.741-20.313,0.204
				c-1.747-6.172,4.689-25.85,10.976-33.57c5.701,0.658,9.851,4.719,14.152,7.438c0.744-0.285,0.938-0.303,1.045-0.409
				c7.923-7.937,7.27-11.637-2.831-16.168c-2.27-1.018-4.518-2.084-7.175-3.313c-1.071,0.893-2.181,1.822-3.295,2.747
				c-5.236,4.346-10.377,8.816-15.763,12.97c-1.961,1.512-3.318,3.077-3.968,5.461c-4.794,17.604-5.867,35.488-2.909,53.413
				c1.521,9.211,5.441,17.809,11.192,25.354c3.077,4.038,4.471,4.16,8.54,1.068c5.415-4.115,11.599-6.453,18.156-7.934
				c2.94-0.664,5.852-1.298,7.736-4.034c0.31-0.448,1.118-0.553,1.688-0.813c2.566,5.063,1.981,8.058-4.016,20.411
				c6.355,0.754,12.535,1.486,19.524,2.316c-1.614-7.166-3.747-13.912-3.289-21.092c0.448-7.043-0.789-14.168,0.601-21.689
				c1.271,0.535,2.361,0.667,2.914,1.281c3.8,4.221,7.391,8.581,8.653,14.361c1.563,7.147,3.372,14.246,4.737,21.43
				c0.514,2.697,0.083,5.572,0.083,8.486c12.164,2.732,24.451,5.575,36.79,8.166c1.569,0.33,3.609-0.291,5.093-1.096
				c3.643-1.978,6.871-4.857,10.664-6.39c5.61-2.265,7.42-6.819,8.646-11.905c3.084-12.791,1.345-25.179-4.015-37.004
				c-2.25-4.966-5.111-9.742-8.286-14.182c-7.244-10.135-12.003-21.102-12.69-33.643c-0.094-1.718,0.207-3.458,0.395-6.212
				c6.864,4.26,12.918,7.819,18.4,12.729c3.083-2.916,5.083-6.152,6.163-10.203c-4.752-4.004-9.23-7.963-13.913-11.662
				c-3.633-2.871-4.308-2.672-7.762,0.117c-4.272,3.449-8.587,6.846-12.931,10.204c-1.769,1.368-3.466,2.758-3.261,5.249
				c0.79,9.588,0.791,19.366,5.938,28.016c3.659,6.148,7.582,12.144,11.138,18.352c4.896,8.549,9.096,17.38,10.399,27.348
				c0.971,7.429-0.578,13.897-6.302,19.019c-2.172,1.943-4.465,3.753-6.992,5.865c-3.567-3.609-5.383-7.164-4.805-11.581
				c0.605-4.616,1.463-9.202,2.299-13.784c1.279-7.016,1.148-13.92-1.853-20.5c-0.988-2.169-2.562-4.071-4.237-6.668
				c-3.063,5.982-5.672,11.08-8.443,16.494c3.521,3.071,3.078,7.388,2.546,11.447c-0.635,4.832-0.975,9.552-0.005,14.373
				c0.335,1.668-0.071,3.484-0.165,5.89c-4.086-2.097-5.442-5.365-7.194-8.192c-6.459-10.43-10.718-21.74-13.467-33.684
				c-0.396-1.719-2.09-3.139-3.524-5.185c0.563-0.548,1.384-1.485,2.341-2.257c19.938-16.073,20.264-45.229,2.573-62.741
				c-3.533-3.499-4.457-3.585-8.571-0.73c-2.318,1.607-4.452,3.484-6.666,5.242c-1.122,0.892-2.238,1.791-3.71,2.969
				c-0.593-1.422-1.02-2.272-1.302-3.168c-0.288-0.916-0.435-1.877-0.675-2.963c-4.307-0.135-7.284,2.474-10.297,3.848
				c0.256,12.918,0.784,25.52,0.676,38.115c-0.105,12.384-0.857,24.763-1.332,37.312c-4.401,0-8.173,0-11.959,0
				c-0.508,0.914-1.039,1.588-1.279,2.354c-0.921,2.936-1.846,5.898-5.536,6.277c-4.104,0.421-8.211,0.143-10.901-3.47
				c-2.361-3.172-4.8-6.489-6.194-10.13c-2.231-5.824-4.639-11.799-3.332-18.63c4.592-1.646,9.236-0.571,14.604-0.599
				C409.444,60.013,411.458,56.685,414.126,52.277z M455.148,12.351c8.474,9.801,12.485,20.383,10.41,32.797
				c-1.537,9.19-9.463,20.096-15.079,21.419c-4.685-2.908-6.387-7.511-6.536-12.692c-0.207-7.144-0.358-14.314,0.022-21.443
				C444.391,24.477,447.603,17.747,455.148,12.351z"/>
			<path fill="#BE7411" d="M459.81,3.819c1.276,0,2.418,0.896,4.298,2.758c17.69,17.513,17.365,46.668-2.573,62.741
				c-0.957,0.771-1.778,1.709-2.341,2.257c1.435,2.046,3.129,3.466,3.524,5.185c2.749,11.943,7.008,23.254,13.467,33.684
				c1.752,2.827,3.108,6.096,7.194,8.192c0.094-2.405,0.5-4.222,0.165-5.89c-0.97-4.821-0.63-9.541,0.005-14.373
				c0.532-4.06,0.976-8.376-2.546-11.447c2.771-5.414,5.381-10.512,8.443-16.494c1.676,2.597,3.249,4.499,4.237,6.668
				c3.001,6.58,3.132,13.484,1.853,20.5c-0.836,4.582-1.693,9.168-2.299,13.784c-0.578,4.417,1.237,7.972,4.805,11.581
				c2.527-2.112,4.82-3.922,6.992-5.865c5.724-5.121,7.272-11.59,6.302-19.019c-1.304-9.968-5.503-18.799-10.399-27.348
				c-3.556-6.208-7.479-12.203-11.138-18.352c-5.147-8.649-5.148-18.428-5.938-28.016c-0.205-2.491,1.492-3.881,3.261-5.249
				c4.344-3.358,8.658-6.755,12.931-10.204c1.775-1.434,2.816-2.183,3.902-2.183c1.026,0,2.094,0.67,3.859,2.065
				c4.683,3.699,9.161,7.658,13.913,11.662c-1.08,4.051-3.08,7.287-6.163,10.203c-5.482-4.909-11.536-8.469-18.4-12.729
				c-0.188,2.754-0.488,4.494-0.395,6.212c0.688,12.541,5.446,23.508,12.69,33.643c3.175,4.439,6.036,9.216,8.286,14.182
				c5.359,11.825,7.099,24.213,4.015,37.004c-1.227,5.086-3.036,9.641-8.646,11.905c-3.793,1.532-7.021,4.412-10.664,6.39
				c-1.205,0.653-2.777,1.187-4.166,1.187c-0.32,0-0.632-0.029-0.927-0.091c-12.339-2.591-24.626-5.434-36.79-8.166
				c0-2.914,0.431-5.789-0.083-8.486c-1.365-7.184-3.175-14.282-4.737-21.43c-1.263-5.78-4.854-10.141-8.653-14.361
				c-0.553-0.614-1.643-0.746-2.914-1.281c-1.39,7.521-0.152,14.646-0.601,21.689c-0.458,7.18,1.675,13.926,3.289,21.092
				c-6.989-0.83-13.169-1.563-19.524-2.316c5.997-12.354,6.582-15.349,4.016-20.411c-0.569,0.26-1.378,0.364-1.688,0.813
				c-1.885,2.736-4.796,3.37-7.736,4.034c-6.558,1.48-12.741,3.818-18.156,7.934c-1.864,1.416-3.167,2.158-4.327,2.158
				c-1.372,0-2.546-1.038-4.213-3.227c-5.751-7.545-9.672-16.143-11.192-25.354c-2.958-17.925-1.885-35.81,2.909-53.413
				c0.649-2.384,2.007-3.949,3.968-5.461c5.386-4.153,10.526-8.624,15.763-12.97c1.114-0.925,2.224-1.854,3.295-2.747
				c2.657,1.229,4.905,2.295,7.175,3.313c10.101,4.531,10.754,8.231,2.831,16.168c-0.106,0.106-0.301,0.124-1.045,0.409
				c-4.302-2.72-8.451-6.78-14.152-7.438c-6.286,7.721-12.723,27.398-10.976,33.57c2.272,0.921,4.563,1.241,6.924,1.241
				c4.145,0,8.51-0.987,13.389-1.445c-2.668,4.407-4.682,7.735-6.493,10.727c-0.068,0-0.136,0-0.204,0
				c-2.948,0-5.68-0.32-8.307-0.32c-2.078,0-4.091,0.2-6.094,0.918c-1.307,6.831,1.101,12.806,3.332,18.63
				c1.395,3.641,3.833,6.958,6.194,10.13c2.113,2.838,5.102,3.618,8.275,3.618c0.866,0,1.746-0.059,2.626-0.148
				c3.69-0.379,4.615-3.342,5.536-6.277c0.24-0.766,0.771-1.439,1.279-2.354c3.786,0,7.558,0,11.959,0
				c0.475-12.549,1.227-24.928,1.332-37.312c0.108-12.596-0.42-25.197-0.676-38.115c2.938-1.34,5.841-3.853,9.977-3.853
				c0.105,0,0.213,0.001,0.32,0.005c0.24,1.086,0.387,2.047,0.675,2.963c0.282,0.896,0.709,1.746,1.302,3.168
				c1.472-1.178,2.588-2.077,3.71-2.969c2.214-1.758,4.348-3.635,6.666-5.242C457.461,4.511,458.688,3.819,459.81,3.819
				 M450.479,66.566c5.616-1.323,13.542-12.229,15.079-21.419c2.075-12.414-1.937-22.996-10.41-32.797
				c-7.546,5.396-10.758,12.126-11.183,20.08c-0.381,7.129-0.229,14.3-0.022,21.443C444.093,59.056,445.795,63.658,450.479,66.566
				 M459.81,1.319L459.81,1.319c-1.974,0-3.748,1.12-5.698,2.473c-1.693,1.174-3.279,2.474-4.814,3.731
				c-0.658,0.539-1.315,1.079-1.981,1.607c-0.366,0.292-0.732,0.583-1.109,0.885c-0.14-0.471-0.245-0.997-0.366-1.599
				c-0.067-0.333-0.137-0.675-0.215-1.031l-0.42-1.898l-1.943-0.061c-0.134-0.004-0.268-0.006-0.398-0.006
				c-3.674,0-6.519,1.609-8.804,2.903c-0.778,0.44-1.514,0.857-2.21,1.175l-1.495,0.682l0.032,1.642
				c0.079,3.963,0.185,7.947,0.286,11.8c0.239,9.024,0.465,17.548,0.39,26.244c-0.072,8.551-0.464,17.294-0.843,25.75
				c-0.133,2.975-0.27,6.03-0.394,9.083h-9.555h-1.471l-0.715,1.286c-0.148,0.267-0.299,0.51-0.441,0.74
				c-0.385,0.623-0.783,1.268-1.038,2.079c-0.986,3.145-1.534,4.347-3.405,4.538c-0.888,0.092-1.663,0.136-2.371,0.136
				c-2.991,0-4.926-0.806-6.271-2.611c-2.138-2.871-4.561-6.126-5.864-9.531l-0.191-0.497c-1.958-5.103-3.816-9.946-3.241-15.288
				c1.12-0.252,2.362-0.368,3.859-0.368c1.203,0,2.449,0.072,3.769,0.149c1.449,0.084,2.948,0.171,4.538,0.171l0.217,0l1.4-0.007
				l0.726-1.198l3.572-5.901l2.921-4.826l2.572-4.249l-4.945,0.464c-1.941,0.183-3.778,0.442-5.554,0.694
				c-2.69,0.381-5.232,0.741-7.601,0.741c-1.761,0-3.287-0.197-4.705-0.612c-0.397-5.946,4.497-21.471,9.828-28.977
				c3.074,0.727,5.716,2.613,8.492,4.596c1.056,0.754,2.147,1.534,3.253,2.233l1.06,0.67l1.171-0.449
				c0.261-0.1,0.443-0.162,0.574-0.206c0.366-0.125,0.868-0.294,1.344-0.771c3.411-3.417,6.793-7.467,6.028-11.617
				c-0.761-4.122-5.281-6.66-9.604-8.599c-1.513-0.679-3.04-1.39-4.657-2.143c-0.797-0.372-1.623-0.756-2.492-1.158l-1.435-0.664
				l-1.215,1.012l-1.214,1.013c-0.685,0.572-1.38,1.152-2.077,1.731c-1.48,1.229-2.952,2.467-4.425,3.705
				c-3.659,3.077-7.442,6.258-11.268,9.209c-1.881,1.45-3.929,3.39-4.854,6.783c-4.939,18.136-5.937,36.465-2.964,54.478
				c1.56,9.444,5.485,18.348,11.671,26.462c1.553,2.037,3.44,4.211,6.201,4.211c1.933,0,3.732-1.066,5.84-2.668
				c4.603-3.497,10.065-5.876,17.194-7.485l0.088-0.02c2.542-0.574,5.356-1.21,7.62-3.269c0.509,2.802-0.688,6.235-5.1,15.322
				l-1.534,3.16l3.488,0.414l5.278,0.626l14.246,1.69l3.511,0.417l-0.777-3.449c-0.305-1.353-0.627-2.689-0.948-4.019
				c-1.354-5.608-2.633-10.905-2.284-16.364c0.182-2.859,0.097-5.735,0.016-8.518c-0.09-3.054-0.183-6.184,0.081-9.328
				c3.233,3.666,6.098,7.433,7.134,12.173c0.563,2.572,1.164,5.173,1.747,7.688c1.036,4.479,2.109,9.11,2.977,13.676
				c0.296,1.556,0.214,3.305,0.127,5.155c-0.043,0.927-0.088,1.885-0.088,2.864v2.001l1.952,0.438
				c2.898,0.651,5.804,1.309,8.716,1.967c9.189,2.079,18.692,4.229,28.108,6.206c0.453,0.096,0.938,0.145,1.44,0.145
				c1.661,0,3.614-0.543,5.358-1.489c1.585-0.86,3.069-1.861,4.504-2.829c2.003-1.352,3.896-2.628,5.904-3.439
				c6.671-2.693,8.815-8.146,10.141-13.638c3.072-12.745,1.67-25.739-4.168-38.622c-2.196-4.847-5.066-9.76-8.53-14.604
				c-7.619-10.661-11.619-21.234-12.228-32.325c-0.03-0.554-0.008-1.146,0.041-1.811c5.438,3.365,10.2,6.396,14.59,10.327
				l1.714,1.535l1.672-1.581c3.492-3.303,5.672-6.918,6.861-11.375l0.408-1.533l-1.213-1.022c-1.436-1.209-2.847-2.415-4.245-3.61
				c-3.306-2.825-6.428-5.494-9.729-8.102c-1.803-1.424-3.454-2.604-5.409-2.604c-2.082,0-3.729,1.33-5.473,2.737
				c-4.059,3.276-8.274,6.604-12.89,10.171c-1.811,1.401-4.545,3.517-4.223,7.432c0.104,1.268,0.194,2.538,0.285,3.809
				c0.605,8.492,1.23,17.273,5.996,25.28c1.542,2.59,3.15,5.187,4.705,7.697c2.146,3.463,4.364,7.044,6.412,10.618
				c4.25,7.422,8.773,16.365,10.09,26.43c0.951,7.28-0.793,12.629-5.49,16.831c-1.437,1.285-2.949,2.528-4.55,3.844
				c-0.175,0.144-0.351,0.288-0.527,0.434c-2.154-2.649-2.933-5.067-2.574-7.806c0.553-4.208,1.335-8.49,2.092-12.632l0.188-1.028
				c1.536-8.421,0.87-15.612-2.037-21.985c-0.755-1.657-1.772-3.124-2.85-4.678c-0.507-0.731-1.031-1.487-1.562-2.309l-2.351-3.643
				l-1.976,3.858l-5.175,10.109l-3.269,6.385l-0.89,1.739l1.472,1.284c2.434,2.123,2.244,5.168,1.711,9.238
				c-0.622,4.736-1.051,9.855,0.022,15.191c0.025,0.126,0.044,0.258,0.058,0.396c-0.738-0.932-1.339-1.962-1.979-3.062
				c-0.285-0.49-0.568-0.975-0.861-1.447c-5.972-9.644-10.275-20.415-13.155-32.928c-0.396-1.722-1.499-3.053-2.566-4.34
				c-0.022-0.028-0.046-0.056-0.069-0.084c0.19-0.178,0.386-0.351,0.585-0.511c9.864-7.952,15.65-19.258,16.291-31.834
				c0.655-12.848-4.275-25.47-13.528-34.63C463.875,2.829,462.164,1.32,459.81,1.319L459.81,1.319z M450.855,63.792
				c-2.836-2.174-4.282-5.455-4.413-9.99c-0.198-6.844-0.36-14.122,0.02-21.238c0.373-6.984,3.026-12.365,8.305-16.764
				c7.416,9.288,10.064,18.536,8.326,28.935C461.784,52.561,455.246,61.729,450.855,63.792L450.855,63.792z"/>
		</g>
		<g>
			<linearGradient id="SVGID_2_" gradientUnits="userSpaceOnUse" x1="135.6411" y1="127.3242" x2="113.6777" y2="2.7634">
				<stop  offset="0" style="stop-color:#FFFFFF"/>
				<stop  offset="0.0844" style="stop-color:#FFFEF6"/>
				<stop  offset="0.2237" style="stop-color:#FFFCDD"/>
				<stop  offset="0.4008" style="stop-color:#FEF8B4"/>
				<stop  offset="0.6086" style="stop-color:#FEF37B"/>
				<stop  offset="0.8394" style="stop-color:#FDEC34"/>
				<stop  offset="0.9946" style="stop-color:#FDE700"/>
			</linearGradient>
			<path fill-rule="evenodd" clip-rule="evenodd" fill="url(#SVGID_2_)" d="M163.002,117.174c-1.064-1.406-1.449-2.166-2.049-2.666
				c-3.066-2.553-4.164-5.912-4.215-9.754c-0.293-22.15-0.598-44.3-0.89-66.45c-0.116-8.795,3.804-15.651,10.209-21.355
				c1.871-1.665,3.449-1.43,5.292,0.035c8.137,6.465,11.318,16.384,8.603,26.396c-0.73,2.696-1.176,5.556-1.193,8.343
				c-0.093,15.17-0.009,30.34,0.01,45.51c0.006,5.299,0.001,10.596,0.001,15.995c2.835,0.649,12.17-0.083,16.011-1.387
				c-1.257-2.025-2.999-3.907-3.634-6.108c-0.67-2.325-0.344-4.955-0.348-7.453c-0.029-14.336-0.158-28.674,0.032-43.009
				c0.068-5.132,0.828-10.267,1.456-15.379c1.07-8.711-0.314-16.46-7.422-22.549c-3.767-3.227-7.108-6.95-10.8-10.607
				c-6.528,2.539-11.432,7.417-17.816,11.297c-0.327-3.438-0.57-5.999-0.892-9.388c-4.448,2.461-8.418,4.657-12.703,7.026
				c3.204,7.009,1.95,14.397,2.002,21.636c0.161,22.504,0.009,45.01,0.11,67.514c0.019,4.097-1.305,7.509-3.903,10.484
				c-1.325,1.518-2.922,2.814-5.222,2.221c-2.5-0.645-3.97-2.324-4.679-4.734c-0.14-0.476-0.223-0.979-0.25-1.475
				c-0.303-5.646-0.816-11.293-0.843-16.942c-0.119-26.339-0.096-52.679-0.147-79.018c-0.004-1.938-0.203-3.873-0.355-6.602
				c-4.454,1.967-8.18,3.611-12.356,5.454c2.593,13.795,1.419,27.767,1.563,41.696c0.19,18.336,0.019,36.675,0.186,55.012
				c0.036,3.896-0.936,7.222-3.362,10.157c-1.845,2.234-3.5,2.539-5.406,0.309c-3.447-4.032-6.97-8.133-9.587-12.705
				c-3.126-5.463-5.328-11.455-7.947-17.209c-0.747-1.639-1.555-3.25-2.291-4.783c3.755-4.59,7.731-8.869,11.034-13.618
				c5.521-7.941,8.488-16.793,8.644-26.627c0.12-7.615-0.566-14.965-3.949-21.89c-0.365-0.747-0.594-1.604-1.11-2.226
				c-4.016-4.828-8.086-9.612-12.351-14.66c-2.504,1.605-4.607,2.89-6.641,4.275c-2.039,1.391-4.008,2.885-6.723,4.851
				c-0.67-2.69-1.2-4.817-1.892-7.593c-3.844,2.445-7.512,4.779-10.657,6.78c0.069,15.459,0.055,30.421,0.222,45.38
				c0.22,19.63,0.501,39.261,0.937,58.887c0.121,5.435-0.731,10.597-2.498,15.679c-0.366,1.055-0.566,2.166-1.035,4.006
				c6.37-1.133,11.699-3.594,17.96-5.191c-5.072-7.143-4.302-14.719-4.319-22.162c-0.012-5.001-0.078-10.006,0.094-15.001
				c0.063-1.827,0.742-3.632,1.292-6.144c3.955,3.471,5.984,6.979,7.442,10.881c3.029,8.111,6.043,16.227,9.109,24.322
				c0.513,1.354,1.258,2.619,2.092,4.328C118.943,123.93,140.374,119.893,163.002,117.174z M82.881,78.835
				c-3.117-2.644-5.178-5.722-5.13-10.108c0.113-10.479-0.078-20.964,0.158-31.438c0.077-3.439,0.728-6.971,1.769-10.253
				c1.202-3.788,3.621-6.925,7.113-8.989C105.311,34.479,101.935,64.758,82.881,78.835z"/>
			<path fill="#BE7411" d="M174.066,6.735c3.692,3.657,7.034,7.381,10.8,10.607c7.107,6.089,8.492,13.838,7.422,22.549
				c-0.628,5.112-1.388,10.247-1.456,15.379c-0.19,14.335-0.062,28.673-0.032,43.009c0.004,2.498-0.322,5.128,0.348,7.453
				c0.635,2.201,2.377,4.083,3.634,6.108c-2.866,0.973-8.79,1.627-12.791,1.627c-1.361,0-2.5-0.075-3.22-0.24
				c0-5.399,0.005-10.696-0.001-15.995c-0.019-15.17-0.103-30.34-0.01-45.51c0.017-2.787,0.462-5.646,1.193-8.343
				c2.715-10.013-0.466-19.932-8.603-26.396c-0.961-0.764-1.851-1.193-2.747-1.193c-0.822,0-1.65,0.361-2.545,1.158
				c-6.405,5.704-10.325,12.561-10.209,21.355c0.292,22.15,0.596,44.3,0.89,66.45c0.051,3.842,1.149,7.201,4.215,9.754
				c0.601,0.5,0.985,1.26,2.049,2.666c-22.629,2.719-44.06,6.756-65.182,13.789c-0.834-1.709-1.58-2.975-2.092-4.328
				c-3.066-8.096-6.08-16.211-9.109-24.322c-1.458-3.902-3.487-7.41-7.442-10.881c-0.55,2.512-1.229,4.316-1.292,6.144
				c-0.172,4.995-0.106,10-0.094,15.001c0.017,7.443-0.753,15.02,4.319,22.162c-6.262,1.598-11.59,4.059-17.96,5.191
				c0.469-1.84,0.669-2.951,1.035-4.006c1.767-5.082,2.619-10.244,2.498-15.679c-0.436-19.626-0.717-39.257-0.937-58.887
				c-0.167-14.959-0.153-29.921-0.222-45.38c3.145-2.001,6.813-4.335,10.657-6.78c0.691,2.775,1.221,4.902,1.892,7.593
				c2.714-1.966,4.684-3.46,6.723-4.851c2.033-1.386,4.137-2.67,6.641-4.275c4.265,5.048,8.335,9.832,12.351,14.66
				c0.516,0.621,0.746,1.479,1.11,2.226c3.383,6.925,4.068,14.274,3.949,21.89c-0.155,9.834-3.122,18.686-8.644,26.627
				c-3.302,4.749-7.278,9.028-11.034,13.618c0.736,1.533,1.544,3.145,2.291,4.783c2.62,5.754,4.821,11.746,7.947,17.209
				c2.617,4.572,6.14,8.673,9.587,12.705c0.888,1.039,1.722,1.528,2.545,1.528c0.944,0,1.875-0.644,2.861-1.837
				c2.426-2.936,3.397-6.262,3.362-10.157c-0.167-18.337,0.004-36.676-0.186-55.012c-0.145-13.93,1.029-27.901-1.563-41.696
				c4.176-1.843,7.902-3.487,12.356-5.454c0.152,2.729,0.352,4.664,0.355,6.602c0.052,26.339,0.028,52.679,0.147,79.018
				c0.026,5.649,0.54,11.296,0.843,16.942c0.026,0.495,0.11,0.999,0.25,1.475c0.708,2.41,2.179,4.09,4.679,4.734
				c0.391,0.101,0.761,0.147,1.113,0.147c1.722,0,3.009-1.108,4.109-2.368c2.598-2.976,3.921-6.388,3.903-10.484
				c-0.101-22.504,0.051-45.01-0.11-67.514c-0.052-7.238,1.202-14.627-2.002-21.636c4.285-2.369,8.254-4.565,12.703-7.026
				c0.322,3.389,0.565,5.949,0.892,9.388C162.634,14.152,167.538,9.274,174.066,6.735 M82.881,78.835
				c19.054-14.077,22.43-44.355,3.91-60.789c-3.492,2.064-5.911,5.201-7.113,8.989c-1.041,3.282-1.692,6.813-1.769,10.253
				c-0.236,10.475-0.045,20.959-0.158,31.438C77.703,73.113,79.764,76.191,82.881,78.835 M174.672,3.817l-1.513,0.588
				c-4.41,1.715-8.131,4.426-11.73,7.047c-1.008,0.734-2.033,1.48-3.083,2.213l-0.5-5.258l-0.361-3.798l-3.338,1.847l-0.615,0.34
				l-12.087,6.686l-2.026,1.121l0.962,2.106c2.234,4.888,2.06,10.082,1.876,15.582c-0.055,1.644-0.112,3.344-0.1,5.033
				c0.089,12.448,0.083,25.109,0.076,37.354c-0.005,9.882-0.011,20.1,0.034,30.152c0.016,3.438-1.029,6.243-3.286,8.829
				c-0.925,1.061-1.591,1.513-2.226,1.513c-0.149,0-0.314-0.023-0.488-0.068c-1.51-0.389-2.406-1.32-2.905-3.019
				c-0.083-0.281-0.135-0.594-0.151-0.902c-0.092-1.716-0.203-3.43-0.314-5.145c-0.25-3.839-0.507-7.809-0.525-11.677
				c-0.078-17.238-0.095-34.768-0.112-51.721c-0.009-9.097-0.018-18.193-0.036-27.29c-0.003-1.36-0.094-2.686-0.199-4.221
				c-0.053-0.768-0.109-1.596-0.161-2.515l-0.201-3.607l-3.305,1.459l-12.22,5.395l-0.135,0.06l-1.814,0.8l0.366,1.949
				c1.874,9.971,1.728,20.335,1.585,30.358c-0.05,3.569-0.103,7.26-0.065,10.902c0.098,9.457,0.1,19.079,0.102,28.383
				c0.001,8.726,0.003,17.747,0.084,26.625c0.032,3.486-0.854,6.201-2.789,8.542c-0.475,0.575-0.784,0.805-0.928,0.892
				c-0.114-0.073-0.333-0.243-0.651-0.614l-0.134-0.157c-3.302-3.862-6.717-7.856-9.183-12.166
				c-2.082-3.636-3.795-7.649-5.454-11.53c-0.767-1.797-1.561-3.655-2.388-5.473c-0.528-1.159-1.081-2.294-1.616-3.392
				c0,0,0,0,0-0.001c0.832-0.996,1.674-1.986,2.497-2.952c2.604-3.059,5.295-6.222,7.64-9.593c5.872-8.446,8.93-17.872,9.09-28.015
				c0.103-6.507-0.283-15.004-4.202-23.026c-0.093-0.191-0.174-0.392-0.256-0.593c-0.259-0.631-0.582-1.417-1.177-2.133
				c-3.065-3.685-6.115-7.29-9.344-11.105l-3.02-3.571l-1.414-1.674l-1.845,1.183c-0.791,0.507-1.542,0.982-2.263,1.438
				c-1.55,0.98-3.014,1.906-4.437,2.876c-1.24,0.846-2.443,1.72-3.787,2.705l-0.506-2.029l-0.487-1.957l-0.839-3.368l-2.929,1.863
				l-8.207,5.221l-2.45,1.559l-1.165,0.741l0.006,1.38c0.021,4.79,0.035,9.532,0.048,14.242c0.03,10.708,0.059,20.822,0.174,31.155
				c0.257,22.979,0.555,41.699,0.937,58.915c0.113,5.068-0.659,9.91-2.36,14.802c-0.281,0.809-0.463,1.582-0.695,2.563
				c-0.114,0.48-0.242,1.021-0.401,1.647l-0.957,3.758l3.817-0.68c3.924-0.697,7.475-1.877,10.908-3.019
				c2.33-0.774,4.739-1.575,7.233-2.211l3.529-0.9l-2.108-2.97c-4-5.634-3.939-11.657-3.874-18.035
				c0.009-0.896,0.018-1.792,0.016-2.686c-0.002-0.93-0.006-1.859-0.01-2.789c-0.018-3.982-0.035-8.101,0.103-12.12
				c0.014-0.392,0.068-0.8,0.152-1.237c1.566,1.951,2.752,4.116,3.742,6.764l1.946,5.216c2.338,6.269,4.756,12.751,7.167,19.117
				c0.392,1.033,0.884,1.988,1.405,3c0.246,0.478,0.507,0.984,0.778,1.539l0.96,1.967l2.077-0.691
				c18.934-6.305,39.489-10.651,64.69-13.679l4.322-0.52l-2.626-3.472c-0.365-0.482-0.645-0.884-0.881-1.223
				c-0.495-0.71-0.923-1.323-1.563-1.855c-2.215-1.845-3.268-4.344-3.314-7.866c-0.138-10.374-0.277-20.748-0.417-31.122
				c-0.159-11.776-0.317-23.552-0.473-35.328c-0.098-7.389,2.968-13.753,9.372-19.455c0.435-0.387,0.742-0.525,0.883-0.525
				c0.087,0,0.431,0.047,1.191,0.651c7.313,5.81,10.208,14.702,7.745,23.785c-0.832,3.07-1.263,6.091-1.28,8.982
				c-0.068,11.113-0.041,22.407-0.015,33.328c0.01,4.067,0.02,8.134,0.024,12.2c0.004,3.626,0.003,7.25,0.002,10.907l-0.001,5.085
				v1.992l1.942,0.444c0.893,0.205,2.128,0.304,3.778,0.304c4.133,0,10.348-0.658,13.594-1.76l2.98-1.012l-1.66-2.674
				c-0.424-0.685-0.884-1.332-1.328-1.958c-0.877-1.236-1.705-2.404-2.028-3.524c-0.395-1.37-0.344-3.039-0.289-4.805
				c0.021-0.657,0.04-1.313,0.039-1.96c-0.007-3.411-0.02-6.821-0.032-10.231c-0.04-10.734-0.081-21.835,0.064-32.74
				c0.056-4.184,0.604-8.505,1.133-12.684c0.103-0.809,0.205-1.616,0.304-2.424c1.339-10.902-1.291-18.767-8.277-24.752
				c-2.499-2.141-4.802-4.505-7.24-7.009c-1.107-1.137-2.253-2.313-3.427-3.477L174.672,3.817L174.672,3.817z M83.026,75.542
				c-1.958-2.08-2.804-4.189-2.775-6.788c0.047-4.377,0.042-8.819,0.036-13.116c-0.008-6.001-0.016-12.208,0.122-18.293
				c0.068-3.057,0.64-6.36,1.652-9.553c0.842-2.653,2.375-4.888,4.479-6.55c6.816,6.801,10.434,16.355,9.979,26.52
				C96.033,58.625,91.03,68.856,83.026,75.542L83.026,75.542z"/>
		</g>
		<g>
			<linearGradient id="SVGID_3_" gradientUnits="userSpaceOnUse" x1="578.998" y1="179.1025" x2="578.998" y2="7.3755">
				<stop  offset="0" style="stop-color:#FFFFFF"/>
				<stop  offset="0.0844" style="stop-color:#FFFEF6"/>
				<stop  offset="0.2237" style="stop-color:#FFFCDD"/>
				<stop  offset="0.4008" style="stop-color:#FEF8B4"/>
				<stop  offset="0.6086" style="stop-color:#FEF37B"/>
				<stop  offset="0.8394" style="stop-color:#FDEC34"/>
				<stop  offset="0.9946" style="stop-color:#FDE700"/>
			</linearGradient>
			<path fill-rule="evenodd" clip-rule="evenodd" fill="url(#SVGID_3_)" d="M563.956,154.113c6.731,3.57,12.076-1.052,18.03-2.34
				c1.514,4.148-3.055,6.135-3.041,10.176c7.695,5.05,16.971,11.309,25.877,17.153c-0.354-1.898-1.243-4.205-1.558-5.273
				c-1.452-4.949-3.531-9.77-4.453-14.807c-1.371-7.495-2.676-15.126-2.753-22.712c-0.333-32.652-0.344-65.311-0.149-97.964
				c0.046-7.662-2.218-13.977-7.33-19.487c-2.601-2.805-5.033-5.767-7.64-8.567c-0.972-1.045-2.218-1.834-3.56-2.917
				c-2.393,2.147-4.492,3.993-6.548,5.886c-3.794,3.494-7.548,7.034-11.346,10.523c-3.588,3.297-3.768,4.596-2.258,9.217
				c0.858,2.627,1.325,5.444,1.522,8.207c0.254,3.566,0.063,7.164,0.063,11.693c4.88-2.956,8.596-5.936,11.003-9.717
				c1.379-2.168,0.723-5.746,0.668-8.683c-0.055-2.979-0.655-5.95-0.701-8.931c-0.022-1.488,0.657-2.988,1.112-4.865
				c5.327,2.531,7.803,6.758,10.03,10.925c2.851,5.331,4.521,11.069,3.051,17.275c-0.227,0.959-0.164,1.987-0.231,2.983
				c-0.365,5.408-1.648,9.967-6.324,13.854c-9.32,7.746-16.563,17.358-20.594,28.966c-4.799,13.819-5.296,27.638,1.086,41.218
				c0.283,0.603,0.561,1.209,0.856,1.806C561.351,142.939,564.354,148.001,563.956,154.113z M579.421,141.67
				c-1.266-2.221-2.311-4.239-3.526-6.148c-2.137-3.356-4.728-6.471-6.51-9.997c-5.439-10.763-7.53-22.021-3.591-33.804
				c2.501-7.478,6.799-13.695,13.635-17.889c1.014-0.621,2.301-0.798,3.981-1.352c0.332,8.139,0.779,15.568,0.889,23.002
				c0.076,5.145-0.396,10.296-0.475,15.446c-0.109,7.161,0.01,14.327-0.151,21.487C583.596,135.883,583.002,139.293,579.421,141.67z
				"/>
			<path fill="#BE7411" d="M577.38,7.375c1.342,1.083,2.588,1.872,3.56,2.917c2.606,2.801,5.039,5.763,7.64,8.567
				c5.112,5.511,7.376,11.825,7.33,19.487c-0.194,32.653-0.184,65.312,0.149,97.964c0.077,7.586,1.382,15.217,2.753,22.712
				c0.922,5.037,3.001,9.857,4.453,14.807c0.314,1.068,1.204,3.375,1.558,5.273c-8.906-5.845-18.182-12.104-25.877-17.153
				c-0.014-4.041,4.555-6.027,3.041-10.176c-4.354,0.942-8.383,3.667-12.866,3.667c-1.646,0-3.355-0.368-5.164-1.327
				c0.398-6.112-2.605-11.174-5.187-16.381c-0.296-0.597-0.573-1.203-0.856-1.806c-6.382-13.58-5.885-27.398-1.086-41.218
				c4.031-11.607,11.273-21.22,20.594-28.966c4.676-3.887,5.959-8.445,6.324-13.854c0.067-0.996,0.005-2.024,0.231-2.983
				c1.47-6.206-0.2-11.944-3.051-17.275c-2.228-4.167-4.703-8.394-10.03-10.925c-0.455,1.877-1.135,3.377-1.112,4.865
				c0.046,2.98,0.646,5.951,0.701,8.931c0.055,2.937,0.711,6.515-0.668,8.683c-2.407,3.781-6.123,6.761-11.003,9.717
				c0-4.529,0.191-8.127-0.063-11.693c-0.197-2.763-0.664-5.58-1.522-8.207c-1.51-4.621-1.33-5.92,2.258-9.217
				c3.798-3.489,7.552-7.029,11.346-10.523C572.888,11.368,574.987,9.522,577.38,7.375 M579.421,141.67
				c3.581-2.377,4.175-5.787,4.252-9.254c0.161-7.16,0.042-14.326,0.151-21.487c0.079-5.15,0.551-10.302,0.475-15.446
				c-0.109-7.434-0.557-14.863-0.889-23.002c-1.681,0.554-2.968,0.73-3.981,1.352c-6.836,4.193-11.134,10.411-13.635,17.889
				c-3.939,11.782-1.849,23.041,3.591,33.804c1.782,3.526,4.373,6.641,6.51,9.997C577.11,137.431,578.155,139.449,579.421,141.67
				 M577.294,4.093l-1.584,1.422c-0.762,0.684-1.494,1.337-2.205,1.971c-1.519,1.355-2.952,2.634-4.366,3.936
				c-1.809,1.666-3.607,3.342-5.407,5.018c-1.975,1.839-3.949,3.679-5.937,5.504c-4.48,4.117-4.664,6.565-2.942,11.834
				c0.731,2.24,1.204,4.799,1.405,7.609c0.166,2.335,0.132,4.705,0.093,7.447c-0.018,1.282-0.037,2.628-0.037,4.068v4.438
				l3.795-2.299c5.769-3.494,9.413-6.736,11.817-10.512c1.506-2.369,1.317-5.431,1.151-8.133c-0.042-0.687-0.082-1.335-0.093-1.939
				c-0.029-1.59-0.2-3.148-0.365-4.654c-0.162-1.483-0.314-2.883-0.336-4.269c-0.005-0.292,0.049-0.629,0.137-1.005
				c2.847,2.136,4.57,5.044,6.301,8.282c3.073,5.746,3.97,10.678,2.823,15.521c-0.216,0.913-0.239,1.788-0.26,2.56
				c-0.008,0.278-0.015,0.556-0.033,0.831c-0.326,4.826-1.374,8.729-5.428,12.1c-10.182,8.461-17.367,18.578-21.357,30.068
				c-5.453,15.703-5.065,29.802,1.185,43.102l0.208,0.445c0.221,0.471,0.44,0.942,0.671,1.407c0.293,0.59,0.591,1.178,0.888,1.766
				c2.239,4.421,4.354,8.597,4.044,13.342l-0.104,1.614l1.429,0.758c2.053,1.089,4.125,1.618,6.335,1.618
				c3.175,0,5.981-1.096,8.696-2.155c0.426-0.167,0.847-0.331,1.262-0.488c-0.143,0.237-0.308,0.499-0.495,0.792
				c-0.956,1.491-2.146,3.349-2.138,5.869l0.005,1.344l1.124,0.737c3.702,2.431,7.732,5.114,11.999,7.956
				c4.552,3.031,9.258,6.166,13.877,9.197l4.903,3.218l-1.073-5.766c-0.285-1.531-0.851-3.212-1.264-4.438
				c-0.145-0.431-0.271-0.803-0.354-1.083c-0.527-1.796-1.136-3.58-1.725-5.306c-1.082-3.171-2.104-6.167-2.668-9.245
				c-1.387-7.581-2.638-14.991-2.712-22.287c-0.312-30.505-0.36-62.535-0.149-97.924c0.051-8.412-2.565-15.347-7.997-21.202
				c-1.256-1.354-2.504-2.783-3.711-4.165c-1.27-1.453-2.582-2.955-3.932-4.405c-0.807-0.867-1.727-1.561-2.616-2.231
				c-0.388-0.292-0.791-0.595-1.203-0.928L577.294,4.093L577.294,4.093z M580.01,137.597c-0.654-1.175-1.296-2.303-2.007-3.418
				c-0.805-1.266-1.67-2.494-2.507-3.682c-1.453-2.064-2.826-4.015-3.88-6.101c-5.715-11.308-6.844-21.736-3.451-31.883
				c2.503-7.483,6.614-12.897,12.571-16.551c0.09-0.055,0.195-0.107,0.314-0.157c0.061,1.367,0.123,2.717,0.185,4.051
				c0.251,5.417,0.488,10.533,0.563,15.663c0.044,2.919-0.099,5.929-0.236,8.84c-0.101,2.134-0.204,4.341-0.238,6.531
				c-0.049,3.234-0.052,6.515-0.055,9.687c-0.004,3.867-0.008,7.865-0.096,11.782C581.127,134.464,580.876,136.188,580.01,137.597
				L580.01,137.597z"/>
		</g>
		<g>
			<linearGradient id="SVGID_4_" gradientUnits="userSpaceOnUse" x1="245.1938" y1="110.8047" x2="245.1938" y2="6.8208">
				<stop  offset="0" style="stop-color:#FFFFFF"/>
				<stop  offset="0.0844" style="stop-color:#FFFEF6"/>
				<stop  offset="0.2237" style="stop-color:#FFFCDD"/>
				<stop  offset="0.4008" style="stop-color:#FEF8B4"/>
				<stop  offset="0.6086" style="stop-color:#FEF37B"/>
				<stop  offset="0.8394" style="stop-color:#FDEC34"/>
				<stop  offset="0.9946" style="stop-color:#FDE700"/>
			</linearGradient>
			<path fill-rule="evenodd" clip-rule="evenodd" fill="url(#SVGID_4_)" d="M250.172,94.186c3.764,6.105,5.847,13.13,12.845,16.271
				c2.104-1.538,4.068-2.777,5.802-4.282c3.852-3.34,8.268-5.283,13.164-6.719c6.323-1.852,9.935-6.288,10.722-11.708
				c-4.684-2.203-5.539-2.239-11.507-0.397c0.066,2.436,1.456,5.017-0.796,7.414c-3.559,3.789-9.391,4.247-13.441,0.852
				c-3.843-3.223-6.108-7.573-7.882-12c-1.905-4.756-2.985-9.864-4.146-14.883c-0.431-1.855-0.069-3.894-0.069-5.859
				c5.929-2.426,11.269-0.174,16.695,0.236c2.553-3.671,5.07-7.291,8.263-11.882c-4.819,0.94-8.704,2.07-12.65,2.361
				c-3.894,0.288-7.952,0.798-11.691-0.783c-1.159-7.732,4.452-29.057,9.142-34.109c4.498,1.275,8.225,4.348,12.236,6.887
				c1.436,0.908,2.984,1.637,4.662,2.545c0.803-1.451,1.311-2.283,1.736-3.156c3.938-8.09,3.705-8.854-4.309-13.056
				c-3.207-1.681-6.488-3.22-10.289-5.096c-1.611,1.813-3.373,3.956-5.302,5.935c-3.818,3.916-7.814,7.663-11.561,11.646
				c-1.42,1.51-2.978,3.339-3.405,5.261c-2.421,10.873-4.796,21.771-4.711,33.021c0.056,7.536,1.184,14.896,3.132,22.154
				c0.251,0.938,0.476,1.884,0.862,3.424c-3.266,0.256-6.153,0.482-9.391,0.736c-0.106,1.215-0.507,2.386-0.239,3.377
				c0.769,2.844,0.626,5.4-2.021,7.089c-2.714,1.731-5.735,1.892-8.559,0.298c-5.328-3.008-9.746-7.07-12.409-12.639
				c-3.18-6.648-5.255-13.632-5.349-21.11c-0.096-7.657-0.613-15.314,1.086-22.898c1.924-8.578,6.111-16.028,10.754-23.537
				c6.088,2.424,10.895,5.786,15.209,10.259c2.754-2.325,3.873-5.287,4.742-8.241c0.301-1.022-0.29-2.818-1.109-3.562
				c-2.188-1.982-4.619-3.748-7.143-5.292c-2.651-1.621-5.521-2.885-8.977-4.653c-0.633,0.724-1.897,1.771-2.653,3.105
				c-2.578,4.552-5.935,8.387-9.771,11.925c-8.072,7.445-12.12,16.804-13.306,27.706c-0.904,8.321-1.362,16.553,0.027,24.845
				c1.459,8.69,4.951,16.452,9.907,23.712c3.322,4.867,7.456,8.354,13.007,10.33c6.415,2.283,12.676,1.029,17.271-4.111
				c2.538-2.839,4.641-6.072,6.89-9.164C247.092,94.44,247.052,94.411,250.172,94.186z"/>
			<path fill="#BE7411" d="M268.657,6.82c3.801,1.876,7.082,3.415,10.289,5.096c8.014,4.201,8.246,4.966,4.309,13.056
				c-0.426,0.873-0.934,1.705-1.736,3.156c-1.678-0.908-3.227-1.637-4.662-2.545c-4.012-2.539-7.738-5.611-12.236-6.887
				c-4.689,5.053-10.301,26.377-9.142,34.109c2.014,0.852,4.119,1.096,6.242,1.096c1.82,0,3.653-0.18,5.45-0.313
				c3.946-0.291,7.831-1.421,12.65-2.361c-3.192,4.591-5.71,8.211-8.263,11.882c-3.583-0.271-7.128-1.345-10.831-1.345
				c-1.904,0-3.851,0.285-5.865,1.108c0,1.966-0.361,4.004,0.069,5.859c1.161,5.019,2.241,10.127,4.146,14.883
				c1.773,4.427,4.039,8.777,7.882,12c1.841,1.544,4.051,2.291,6.248,2.291c2.636,0,5.253-1.076,7.194-3.143
				c2.252-2.397,0.862-4.979,0.796-7.414c2.824-0.871,4.503-1.322,5.984-1.322c1.65,0,3.055,0.56,5.522,1.72
				c-0.787,5.42-4.398,9.856-10.722,11.708c-4.896,1.436-9.313,3.379-13.164,6.719c-1.733,1.505-3.698,2.744-5.802,4.282
				c-6.998-3.141-9.081-10.165-12.845-16.271c-3.12,0.226-3.08,0.255-4.531,2.25c-2.249,3.092-4.352,6.325-6.89,9.164
				c-3.135,3.507-7.046,5.205-11.251,5.205c-1.958,0-3.981-0.368-6.02-1.094c-5.551-1.977-9.685-5.463-13.007-10.33
				c-4.956-7.26-8.448-15.021-9.907-23.712c-1.39-8.292-0.932-16.523-0.027-24.845c1.186-10.902,5.233-20.261,13.306-27.706
				c3.837-3.538,7.193-7.373,9.771-11.925c0.756-1.335,2.021-2.382,2.653-3.105c3.455,1.769,6.325,3.032,8.977,4.653
				c2.523,1.544,4.955,3.31,7.143,5.292c0.819,0.743,1.41,2.539,1.109,3.562c-0.869,2.954-1.988,5.916-4.742,8.241
				c-4.314-4.473-9.121-7.835-15.209-10.259c-4.643,7.509-8.83,14.959-10.754,23.537c-1.699,7.584-1.182,15.241-1.086,22.898
				c0.094,7.479,2.169,14.462,5.349,21.11c2.663,5.568,7.081,9.631,12.409,12.639c1.314,0.742,2.672,1.104,4.021,1.104
				c1.549,0,3.087-0.477,4.537-1.401c2.646-1.688,2.789-4.245,2.021-7.089c-0.268-0.991,0.133-2.162,0.239-3.377
				c3.237-0.254,6.125-0.48,9.391-0.736c-0.387-1.54-0.611-2.485-0.862-3.424c-1.948-7.258-3.076-14.618-3.132-22.154
				c-0.085-11.25,2.29-22.148,4.711-33.021c0.428-1.922,1.985-3.751,3.405-5.261c3.746-3.983,7.742-7.73,11.561-11.646
				C265.284,10.776,267.046,8.634,268.657,6.82 M268.055,3.735l-1.266,1.425c-0.496,0.558-1.005,1.146-1.53,1.751
				c-1.181,1.363-2.401,2.773-3.693,4.099c-1.573,1.613-3.211,3.232-4.796,4.797c-2.25,2.224-4.577,4.522-6.796,6.881
				c-1.68,1.786-3.472,3.947-4.024,6.431c-2.277,10.23-4.859,21.825-4.771,33.583c0.055,7.471,1.107,14.924,3.217,22.784
				c0.045,0.17,0.09,0.34,0.135,0.514l-4.63,0.363l-1.813,0.143l-2.11,0.165l-0.185,2.109c-0.026,0.292-0.08,0.615-0.137,0.957
				c-0.164,0.979-0.349,2.09-0.025,3.289c0.792,2.931-0.036,3.746-0.952,4.33c-1.05,0.67-2.124,1.009-3.192,1.009
				c-0.935,0-1.875-0.263-2.792-0.78c-5.405-3.052-9.128-6.826-11.383-11.541c-3.353-7.011-5.023-13.573-5.104-20.063
				c-0.016-1.232-0.042-2.465-0.068-3.697c-0.138-6.454-0.268-12.549,1.093-18.624c1.742-7.765,5.465-14.602,9.318-20.939
				c4.689,2.132,8.671,4.979,12.406,8.851l1.625,1.684l1.788-1.509c3.214-2.714,4.556-6.144,5.528-9.446
				c0.562-1.909-0.276-4.71-1.828-6.119c-2.194-1.988-4.723-3.863-7.518-5.573c-1.906-1.166-3.916-2.154-6.044-3.201
				c-0.982-0.483-2.011-0.989-3.098-1.545l-1.737-0.889l-1.284,1.469c-0.147,0.168-0.338,0.357-0.547,0.567
				c-0.713,0.717-1.69,1.699-2.399,2.952c-2.226,3.93-5.178,7.526-9.291,11.319c-8.162,7.528-12.773,17.104-14.096,29.273
				c-0.823,7.574-1.461,16.529,0.047,25.528c1.44,8.574,4.812,16.656,10.308,24.708c3.767,5.519,8.422,9.207,14.233,11.276
				c2.31,0.821,4.617,1.238,6.859,1.238c5.048,0,9.583-2.088,13.115-6.039c1.982-2.217,3.697-4.643,5.355-6.988
				c0.562-0.794,1.122-1.587,1.692-2.371l0.087-0.12c0.259-0.356,0.549-0.756,0.696-0.915c0.087-0.021,0.217-0.041,0.375-0.061
				c0.562,0.984,1.1,1.995,1.625,2.983c2.668,5.013,5.427,10.196,11.547,12.943l1.326,0.595l1.173-0.858
				c0.66-0.482,1.306-0.935,1.935-1.375c1.416-0.992,2.754-1.929,4.03-3.037c3.159-2.739,6.931-4.654,12.228-6.207
				c6.966-2.04,11.52-7.051,12.493-13.748l0.266-1.833l-1.676-0.789c-2.514-1.182-4.33-1.957-6.586-1.957
				c-1.927,0-4.002,0.594-6.722,1.434l-1.813,0.56l0.052,1.897c0.022,0.818,0.149,1.574,0.272,2.304
				c0.314,1.867,0.353,2.537-0.392,3.33c-1.405,1.496-3.363,2.354-5.372,2.354c-1.705,0-3.31-0.591-4.642-1.707
				c-3.656-3.065-5.674-7.288-7.167-11.014c-1.641-4.095-2.678-8.617-3.681-12.99l-0.351-1.526c-0.215-0.926-0.149-2.074-0.08-3.291
				c0.004-0.064,0.007-0.128,0.011-0.193c1.073-0.285,2.192-0.421,3.429-0.421c1.921,0,3.833,0.328,5.858,0.675
				c1.547,0.265,3.147,0.539,4.784,0.663l1.425,0.108l0.816-1.173l3.154-4.536l5.108-7.346l3.52-5.062l-6.051,1.181
				c-1.56,0.304-3.002,0.624-4.398,0.932c-2.921,0.646-5.443,1.204-7.958,1.39c-0.362,0.027-0.724,0.055-1.088,0.084
				c-1.385,0.109-2.818,0.222-4.178,0.222c-1.499,0-2.768-0.139-3.892-0.433c-0.226-7.407,4.036-23.585,7.689-29.325
				c2.43,0.976,4.712,2.518,7.103,4.135c0.939,0.635,1.91,1.292,2.899,1.917c1.065,0.674,2.136,1.231,3.271,1.82
				c0.5,0.26,1.013,0.526,1.539,0.811l2.178,1.179l1.199-2.168c0.273-0.494,0.512-0.916,0.725-1.291
				c0.424-0.749,0.759-1.339,1.071-1.979c2.108-4.332,3.354-7.125,2.456-9.862c-0.884-2.69-3.556-4.252-7.851-6.503
				c-2.209-1.158-4.457-2.251-6.837-3.409c-1.125-0.547-2.289-1.114-3.506-1.714L268.055,3.735L268.055,3.735z"/>
		</g>
		<g>
			<linearGradient id="SVGID_5_" gradientUnits="userSpaceOnUse" x1="356.6748" y1="113.4883" x2="356.6748" y2="2.5688">
				<stop  offset="0" style="stop-color:#FFFFFF"/>
				<stop  offset="0.0844" style="stop-color:#FFFEF6"/>
				<stop  offset="0.2237" style="stop-color:#FFFCDD"/>
				<stop  offset="0.4008" style="stop-color:#FEF8B4"/>
				<stop  offset="0.6086" style="stop-color:#FEF37B"/>
				<stop  offset="0.8394" style="stop-color:#FDEC34"/>
				<stop  offset="0.9946" style="stop-color:#FDE700"/>
			</linearGradient>
			<path fill-rule="evenodd" clip-rule="evenodd" fill="url(#SVGID_5_)" d="M334.616,112.785c5.878-1.906,11.715-3.908,17.352-7.511
				c-3.828-4.367-3.743-9.446-4.022-14.342c-0.283-4.978-0.117-9.983-0.073-14.976c0.011-1.262,0.308-2.521,0.601-4.752
				c2.51,1.516,4.4,2.657,6.713,4.053c7.174-1.256,12.336-6.031,16.827-11.739c7.769-9.874,9.755-21.315,8.546-33.445
				c-0.272-2.729-1.245-5.659-2.743-7.94c-3.905-5.95-8.074-11.759-12.548-17.291c-2.532-3.131-4.136-2.89-7.075-0.123
				c-2.303,2.166-4.455,4.491-6.752,6.662c-1.003,0.946-2.202,1.685-3.822,2.899c-0.778-3.592-1.383-6.387-2.175-10.049
				c-4.669,3.313-8.64,6.132-12.557,8.912c1.4,2.752,3.028,4.956,3.631,7.412c0.618,2.522,0.247,5.291,0.286,7.953
				c0.27,18.283,0.638,36.566,0.743,54.851c0.038,6.635-0.494,13.277-0.915,19.906c-0.091,1.438-0.764,2.855-1.271,4.246
				c-0.541,1.488-1.202,2.932-1.812,4.395l-1.085,1.582L334.616,112.785z M358.055,13.313c1.841,1.791,3.431,2.994,4.591,4.523
				c5.678,7.48,7.524,16.069,7.125,25.303c-0.406,9.385-4.351,16.915-11.723,22.644c-4.133,3.212-7.919,2.053-9.643-2.924
				c-0.423-1.221-0.478-2.606-0.501-3.92c-0.072-4.151-0.175-8.31-0.035-12.458c0.2-5.959,0.111-11.992,1.061-17.845
				C349.865,22.87,353.017,17.948,358.055,13.313z"/>
			<path fill="#BE7411" d="M361.915,2.568c1.073,0,2.1,0.724,3.353,2.273c4.474,5.532,8.643,11.341,12.548,17.291
				c1.498,2.281,2.471,5.212,2.743,7.94c1.209,12.13-0.777,23.571-8.546,33.445c-4.491,5.708-9.653,10.483-16.827,11.739
				c-2.313-1.396-4.203-2.537-6.713-4.053c-0.293,2.231-0.59,3.49-0.601,4.752c-0.044,4.992-0.21,9.998,0.073,14.976
				c0.279,4.896,0.194,9.975,4.022,14.342c-5.637,3.603-11.474,5.604-17.352,7.511l-2.152,0.703l1.085-1.582
				c0.609-1.463,1.271-2.906,1.812-4.395c0.507-1.391,1.18-2.809,1.271-4.246c0.421-6.629,0.953-13.271,0.915-19.906
				c-0.105-18.284-0.474-36.567-0.743-54.851c-0.039-2.662,0.332-5.431-0.286-7.953c-0.603-2.456-2.23-4.66-3.631-7.412
				c3.917-2.78,7.888-5.599,12.557-8.912c0.792,3.662,1.396,6.457,2.175,10.049c1.62-1.215,2.819-1.953,3.822-2.899
				c2.297-2.171,4.449-4.496,6.752-6.662C359.677,3.321,360.82,2.568,361.915,2.568 M353.62,67.582c1.366,0,2.872-0.59,4.428-1.799
				c7.372-5.729,11.316-13.259,11.723-22.644c0.399-9.233-1.447-17.822-7.125-25.303c-1.16-1.529-2.75-2.732-4.591-4.523
				c-5.038,4.635-8.189,9.557-9.125,15.323c-0.949,5.853-0.86,11.886-1.061,17.845c-0.14,4.148-0.037,8.307,0.035,12.458
				c0.023,1.313,0.078,2.699,0.501,3.92C349.48,65.963,351.357,67.582,353.62,67.582 M347.086,0l-3.09,2.193l-12.557,8.912
				l-1.76,1.249l0.979,1.923c0.47,0.923,0.95,1.764,1.414,2.576c0.906,1.587,1.688,2.958,2.018,4.298
				c0.355,1.452,0.305,3.138,0.251,4.923c-0.024,0.804-0.049,1.635-0.037,2.471c0.074,4.992,0.155,9.983,0.236,14.974
				c0.212,13.064,0.431,26.573,0.507,39.854c0.031,5.468-0.34,11.074-0.699,16.497c-0.071,1.079-0.143,2.157-0.211,3.236
				c-0.047,0.753-0.4,1.663-0.774,2.627c-0.119,0.308-0.238,0.615-0.35,0.921c-0.354,0.976-0.766,1.933-1.2,2.946
				c-0.157,0.367-0.315,0.734-0.47,1.103l-0.94,1.37l-4.172,6.081l7.01-2.291l2.152-0.703c6.146-1.993,12.146-4.089,17.922-7.78
				l2.451-1.566l-1.918-2.188c-2.924-3.337-3.125-7.325-3.339-11.548c-0.021-0.431-0.043-0.86-0.067-1.289
				c-0.218-3.825-0.162-7.776-0.109-11.598c0.016-1.071,0.03-2.143,0.04-3.213c0.002-0.216,0.016-0.441,0.04-0.684l3.481,2.103
				l0.802,0.483l0.921-0.161c8.638-1.513,14.35-7.559,18.361-12.656c7.514-9.55,10.48-21.077,9.068-35.239
				c-0.32-3.209-1.465-6.513-3.141-9.064c-4.146-6.317-8.417-12.203-12.693-17.491c-1.206-1.491-2.897-3.201-5.296-3.202l0,0l0,0
				c-2.136,0-3.875,1.36-5.438,2.83c-1.203,1.132-2.37,2.31-3.499,3.449c-1.061,1.071-2.158,2.178-3.256,3.216
				c-0.149,0.141-0.309,0.279-0.478,0.417l-1.359-6.278L347.086,0L347.086,0z M353.62,65.082c-1.487,0-2.372-1.653-2.853-3.041
				c-0.299-0.864-0.344-2.028-0.363-3.146l-0.025-1.38c-0.065-3.601-0.133-7.325-0.011-10.949c0.044-1.309,0.073-2.621,0.104-3.934
				c0.104-4.518,0.211-9.189,0.926-13.595c0.711-4.38,2.853-8.324,6.693-12.275c0.014,0.013,0.027,0.025,0.041,0.037
				c1.014,0.921,1.89,1.716,2.521,2.548c4.866,6.412,7.031,14.158,6.619,23.684c-0.374,8.646-3.894,15.442-10.759,20.777
				C355.442,64.642,354.442,65.082,353.62,65.082L353.62,65.082z"/>
		</g>
		<g>
			<linearGradient id="SVGID_6_" gradientUnits="userSpaceOnUse" x1="536.3936" y1="146.8223" x2="536.3936" y2="9.3257">
				<stop  offset="0" style="stop-color:#FFFFFF"/>
				<stop  offset="0.0844" style="stop-color:#FFFEF6"/>
				<stop  offset="0.2237" style="stop-color:#FFFCDD"/>
				<stop  offset="0.4008" style="stop-color:#FEF8B4"/>
				<stop  offset="0.6086" style="stop-color:#FEF37B"/>
				<stop  offset="0.8394" style="stop-color:#FDEC34"/>
				<stop  offset="0.9946" style="stop-color:#FDE700"/>
			</linearGradient>
			<path fill-rule="evenodd" clip-rule="evenodd" fill="url(#SVGID_6_)" d="M530.839,14.222c0.699,5.967,1.725,10.855,1.769,15.754
				c0.188,20.814,0.161,41.632,0.054,62.448c-0.056,10.764-0.303,21.534-1.947,32.213c-0.594,3.859-1.788,7.414-4.618,10.268
				c-0.667,0.673-1.189,1.488-2.085,2.629c8.24,3.09,16.086,6.033,24.766,9.289c-0.462-1.621-0.468-2.316-0.81-2.74
				c-3.674-4.548-4.409-9.762-4.31-15.464c0.134-7.634-0.602-15.28-0.597-22.921c0.006-9.305,0.542-18.609,0.587-27.914
				c0.101-20.649,0.045-41.3,0.028-61.95c-0.001-1.916-0.181-3.832-0.315-6.508C538.479,11.233,534.396,12.831,530.839,14.222z"/>
			<path fill="#BE7411" d="M543.36,9.325c0.135,2.676,0.314,4.592,0.315,6.508c0.017,20.65,0.072,41.301-0.028,61.95
				c-0.045,9.305-0.581,18.609-0.587,27.914c-0.005,7.641,0.73,15.287,0.597,22.921c-0.1,5.702,0.636,10.916,4.31,15.464
				c0.342,0.424,0.348,1.119,0.81,2.74c-8.68-3.256-16.525-6.199-24.766-9.289c0.896-1.141,1.418-1.956,2.085-2.629
				c2.83-2.854,4.024-6.408,4.618-10.268c1.645-10.679,1.892-21.449,1.947-32.213c0.107-20.816,0.134-41.634-0.054-62.448
				c-0.044-4.898-1.069-9.787-1.769-15.754C534.396,12.831,538.479,11.233,543.36,9.325 M545.683,5.733l-3.232,1.263l-8.252,3.227
				l-4.27,1.67l-1.798,0.703l0.225,1.917c0.234,1.993,0.5,3.845,0.758,5.636c0.519,3.61,0.966,6.728,0.994,9.849
				c0.163,18.092,0.18,37.924,0.054,62.413c-0.05,9.707-0.244,20.974-1.918,31.845c-0.621,4.038-1.831,6.779-3.923,8.888
				c-0.563,0.568-0.999,1.153-1.505,1.831c-0.229,0.307-0.479,0.643-0.771,1.015l-2.108,2.686l3.197,1.199l20.072,7.528l4.693,1.761
				l4.641,1.74l-1.358-4.766c-0.158-0.555-0.255-0.981-0.34-1.358c-0.182-0.799-0.354-1.554-0.928-2.267
				c-2.78-3.441-3.868-7.454-3.756-13.851c0.073-4.199-0.112-8.433-0.293-12.528c-0.15-3.43-0.306-6.976-0.304-10.435
				c0.003-4.794,0.15-9.687,0.294-14.418c0.133-4.415,0.271-8.979,0.293-13.486c0.08-16.525,0.061-33.323,0.041-49.569
				l-0.013-12.395c-0.001-1.341-0.082-2.649-0.176-4.165c-0.047-0.755-0.098-1.567-0.143-2.467L545.683,5.733L545.683,5.733z"/>
		</g>
		<g>
			<linearGradient id="SVGID_7_" gradientUnits="userSpaceOnUse" x1="300.1514" y1="120.7549" x2="300.1514" y2="24.6367">
				<stop  offset="0" style="stop-color:#FFFFFF"/>
				<stop  offset="0.0844" style="stop-color:#FFFEF6"/>
				<stop  offset="0.2237" style="stop-color:#FFFCDD"/>
				<stop  offset="0.4008" style="stop-color:#FEF8B4"/>
				<stop  offset="0.6086" style="stop-color:#FEF37B"/>
				<stop  offset="0.8394" style="stop-color:#FDEC34"/>
				<stop  offset="0.9946" style="stop-color:#FDE700"/>
			</linearGradient>
			<path fill-rule="evenodd" clip-rule="evenodd" fill="url(#SVGID_7_)" d="M271.351,114.836c1.499,1.396,2.308,2.717,3.438,3.109
				c7.028,2.44,13.808,4.662,21.349,0.426c11.252-6.322,17.444-16.025,20.903-27.887c1.958-6.713,3.152-13.568,2.786-20.664
				c-0.28-5.43-0.056-10.886-0.056-16.626c3.274-0.323,5.955-0.588,9.181-0.906c-2.029-4.17-6.202-1.748-8.902-4.65
				c-0.618-4.48-0.612-9.8,0.214-14.985c0.27-1.691,2.618-3.147,4.202-4.491c0.791-0.672,2.002-0.848,3.711-1.518
				c-1.194-0.92-1.807-1.777-2.534-1.891c-4.609-0.713-9.073,1.893-10.726,6.333c-0.908,2.44-1.704,4.873-1.31,7.69
				c0.428,3.059,0.097,6.224,0.097,9.783c-2.567,0.152-4.513,0.18-6.436,0.405c-1.907,0.224-3.792,0.645-5.818,1.003
				c0.156,1.507,0.254,2.457,0.385,3.725c-1.006,0-1.984,0.11-2.932-0.018c-7.234-0.975-8.056,0.688-10.229,5.945
				c-2.348,5.679-0.75,11.4,3.549,14.322c8.309,5.646,15.416,2.298,16.479-7.728c0.402-3.793-0.331-7.266-2.877-10.357
				c1.823-2.694,3.856-4.313,7.769-3.613c0.335,1.705,0.984,3.568,1.022,5.444c0.206,10.309,0.343,20.606-1.887,30.792
				c-1.285,5.865-4.17,10.859-7.764,15.455c-2.034,2.602-4.549,4.867-7.038,7.066c-6.136,5.42-12.128,5.143-17.917-0.658
				c-1.089-1.091-1.842-1.631-2.624-1.59c-0.682,0.036-1.385,0.515-2.353,1.457C273.765,111.447,272.796,112.993,271.351,114.836z
				 M299.351,71.717c-6.34-4.182-7.381-8.633-3.363-13.427C303.319,61.542,304.959,67.59,299.351,71.717z"/>
			<path fill="#BE7411" d="M324.128,24.636c0.5,0,1.007,0.038,1.514,0.117c0.728,0.113,1.34,0.971,2.534,1.891
				c-1.709,0.67-2.92,0.846-3.711,1.518c-1.584,1.344-3.933,2.8-4.202,4.491c-0.826,5.186-0.832,10.505-0.214,14.985
				c2.7,2.902,6.873,0.48,8.902,4.65c-3.226,0.318-5.906,0.583-9.181,0.906c0,5.74-0.225,11.196,0.056,16.626
				c0.366,7.096-0.828,13.951-2.786,20.664c-3.459,11.861-9.651,21.564-20.903,27.887c-3.082,1.731-6.036,2.384-8.933,2.384
				c-4.191,0-8.26-1.366-12.416-2.81c-1.131-0.393-1.939-1.713-3.438-3.109c1.445-1.843,2.414-3.389,3.684-4.625
				c0.968-0.942,1.671-1.421,2.353-1.457c0.028-0.001,0.055-0.002,0.083-0.002c0.752,0,1.491,0.539,2.541,1.592
				c3.016,3.021,6.085,4.544,9.202,4.544c2.868,0,5.775-1.289,8.715-3.886c2.489-2.199,5.004-4.465,7.038-7.066
				c3.594-4.596,6.479-9.59,7.764-15.455c2.229-10.186,2.093-20.483,1.887-30.792c-0.038-1.876-0.688-3.739-1.022-5.444
				c-0.617-0.11-1.187-0.163-1.716-0.163c-2.831,0-4.517,1.507-6.052,3.776c2.546,3.092,3.279,6.564,2.877,10.357
				c-0.714,6.74-4.161,10.462-8.868,10.462c-2.294,0-4.888-0.884-7.611-2.734c-4.299-2.922-5.896-8.644-3.549-14.322
				c1.784-4.317,2.656-6.21,6.916-6.21c0.929,0,2.019,0.09,3.313,0.265c0.348,0.047,0.699,0.062,1.055,0.062
				c0.614,0,1.24-0.044,1.876-0.044c-0.131-1.268-0.229-2.218-0.385-3.725c2.026-0.358,3.911-0.779,5.818-1.003
				c1.923-0.226,3.868-0.253,6.436-0.405c0-3.56,0.331-6.725-0.097-9.783c-0.395-2.817,0.401-5.25,1.31-7.69
				C316.387,27.134,320.084,24.636,324.128,24.636 M299.351,71.717c5.608-4.127,3.969-10.175-3.363-13.427
				C291.97,63.084,293.011,67.535,299.351,71.717 M324.129,22.136C324.128,22.136,324.128,22.136,324.129,22.136
				c-5.193,0-9.729,3.17-11.555,8.078c-0.989,2.658-1.915,5.535-1.442,8.909c0.265,1.894,0.203,3.954,0.137,6.134
				c-0.009,0.306-0.019,0.614-0.027,0.926c-1.547,0.073-2.885,0.137-4.265,0.299c-1.409,0.165-2.808,0.432-4.161,0.689
				c-0.59,0.112-1.189,0.227-1.801,0.334l-2.291,0.405l0.24,2.314l0.098,0.948c-1.355-0.177-2.492-0.263-3.471-0.264
				c-6.021,0-7.436,3.422-9.227,7.755c-2.764,6.686-0.974,13.655,4.454,17.345c3.092,2.102,6.126,3.167,9.016,3.167
				c6.173,0,10.523-4.865,11.354-12.698c0.429-4.048-0.305-7.525-2.241-10.571c0.818-0.872,1.611-1.255,2.623-1.317
				c0.274,1.114,0.526,2.167,0.546,3.149c0.188,9.384,0.4,20.021-1.83,30.207c-1.064,4.858-3.381,9.449-7.291,14.449
				c-1.853,2.37-4.142,4.451-6.724,6.732c-2.448,2.163-4.824,3.26-7.06,3.26c-2.409,0-4.91-1.281-7.433-3.81
				c-1.124-1.126-2.476-2.326-4.311-2.326c-0.072,0-0.143,0.002-0.214,0.006c-1.622,0.086-2.864,1.09-3.965,2.162
				c-1,0.974-1.806,2.064-2.658,3.219c-0.384,0.521-0.792,1.072-1.249,1.654l-1.417,1.807l1.68,1.565
				c0.447,0.417,0.836,0.84,1.212,1.248c0.874,0.949,1.776,1.931,3.111,2.394c3.979,1.382,8.49,2.948,13.236,2.948
				c3.595,0,6.918-0.885,10.157-2.704c10.876-6.111,18.098-15.717,22.079-29.366c2.283-7.825,3.226-14.855,2.883-21.493
				c-0.189-3.659-0.144-7.312-0.096-11.179c0.012-1.01,0.025-2.027,0.033-3.052l6.937-0.685l3.574-0.353l-1.571-3.229
				c-1.696-3.485-4.646-3.954-6.597-4.264c-0.982-0.156-1.669-0.279-2.196-0.579c-0.485-4.237-0.373-8.922,0.325-13.306
				c0.158-0.45,1.499-1.502,2.219-2.067c0.395-0.31,0.78-0.613,1.131-0.911c0.146-0.123,0.799-0.335,1.275-0.49
				c0.503-0.164,1.074-0.349,1.731-0.606l4.113-1.612l-3.5-2.696c-0.343-0.264-0.64-0.534-0.926-0.794
				c-0.721-0.655-1.538-1.397-2.749-1.586C325.397,22.186,324.76,22.136,324.129,22.136L324.129,22.136L324.129,22.136z
				 M299.18,68.509c-1.8-1.445-2.84-2.884-3.034-4.214c-0.126-0.867,0.079-1.786,0.625-2.78c2.011,1.239,3.252,2.754,3.414,4.238
				C300.3,66.817,299.83,67.75,299.18,68.509L299.18,68.509z"/>
		</g>
		<g>
			<linearGradient id="SVGID_8_" gradientUnits="userSpaceOnUse" x1="32.96" y1="169.5059" x2="32.96" y2="6.1196">
				<stop  offset="0" style="stop-color:#FFFFFF"/>
				<stop  offset="0.0844" style="stop-color:#FFFEF6"/>
				<stop  offset="0.2237" style="stop-color:#FFFCDD"/>
				<stop  offset="0.4008" style="stop-color:#FEF8B4"/>
				<stop  offset="0.6086" style="stop-color:#FEF37B"/>
				<stop  offset="0.8394" style="stop-color:#FDEC34"/>
				<stop  offset="0.9946" style="stop-color:#FDE700"/>
			</linearGradient>
			<path fill-rule="evenodd" clip-rule="evenodd" fill="url(#SVGID_8_)" d="M4.831,169.506c9.875-5.936,19.027-11.435,29.053-17.459
				c-2.487-1.227-4.29-1.694-5.479-2.816c-1.384-1.305-3.145-3.172-3.169-4.819c-0.235-15.956-0.142-31.917-0.142-48.815
				c12.621,4.938,18.934-3.219,24.705-10.901c8.953-11.915,11.594-25.752,12.086-40.69c0.482-14.608-7.315-24.811-14.507-35.687
				c-1.87-2.828-4.984-2.645-7.602-1.043c-3.05,1.863-5.808,4.205-8.724,6.295c-1.56,1.117-3.187,2.143-5.507,3.691
				c-0.575-3.525-0.973-5.969-1.371-8.412c-5.34-1.487-13.026,2.244-20.161,10.018c6.675,3.601,7.005,9.734,6.967,16.445
				c-0.186,33.292-0.075,66.587-0.08,99.88c-0.001,5.939,0.671,11.998-0.294,17.779C9.71,158.342,7.042,163.415,4.831,169.506z
				 M35.793,18.291c17.82,10.418,17.652,58.42-4.838,70.687c-4.216-1.681-5.108-5.413-5.117-9.39
				c-0.032-15.203-0.116-30.411,0.231-45.606C26.228,27.017,30.958,22.467,35.793,18.291z"/>
			<path fill="#BE7411" d="M43.458,6.119c1.49,0,2.893,0.645,3.92,2.198c7.191,10.876,14.989,21.078,14.507,35.687
				c-0.492,14.938-3.133,28.775-12.086,40.69c-4.549,6.056-9.434,12.406-17.479,12.406c-2.162,0-4.552-0.459-7.225-1.505
				c0,16.898-0.094,32.859,0.142,48.815c0.024,1.647,1.785,3.515,3.169,4.819c1.189,1.122,2.992,1.59,5.479,2.816
				c-10.026,6.024-19.178,11.523-29.053,17.459c2.21-6.091,4.879-11.164,5.776-16.535c0.965-5.781,0.292-11.84,0.294-17.779
				c0.005-33.293-0.105-66.588,0.08-99.88c0.038-6.711-0.292-12.845-6.967-16.445c6.102-6.647,12.605-10.339,17.701-10.339
				c0.863,0,1.686,0.106,2.459,0.321c0.398,2.443,0.796,4.887,1.371,8.412c2.32-1.549,3.947-2.574,5.507-3.691
				c2.916-2.09,5.673-4.432,8.724-6.295C40.956,6.553,42.236,6.119,43.458,6.119 M30.955,88.978
				c22.49-12.267,22.659-60.269,4.838-70.687c-4.835,4.176-9.565,8.726-9.725,15.69c-0.347,15.195-0.263,30.403-0.231,45.606
				C25.847,83.564,26.739,87.297,30.955,88.978 M43.458,3.619c-1.634,0-3.358,0.526-4.987,1.523c-2.1,1.282-4.05,2.767-5.936,4.202
				c-0.962,0.732-1.957,1.489-2.939,2.193c-0.696,0.499-1.403,0.977-2.205,1.507l-0.098-0.603l-0.651-3.995l-0.257-1.577
				l-1.54-0.429c-0.984-0.274-2.038-0.413-3.13-0.413c-5.917,0-13.04,4.063-19.543,11.148L0,19.542l2.827,1.524
				c5.319,2.869,5.692,7.498,5.654,14.231c-0.134,23.968-0.113,48.333-0.094,71.898c0.008,9.332,0.016,18.664,0.014,27.996
				c0,1.772,0.058,3.563,0.115,5.297c0.138,4.227,0.268,8.22-0.375,12.071c-0.568,3.399-1.975,6.847-3.464,10.496
				c-0.728,1.783-1.481,3.628-2.196,5.598l-2.405,6.628l6.043-3.633l29.053-17.459l3.926-2.358l-4.107-2.026
				c-0.893-0.44-1.69-0.783-2.394-1.087c-1.122-0.482-2.007-0.863-2.476-1.306c-2.259-2.13-2.379-2.955-2.385-3.042
				c-0.182-12.359-0.167-24.597-0.15-37.552c0.003-2.585,0.006-5.188,0.008-7.811c1.628,0.394,3.209,0.593,4.726,0.593
				c9.409,0,14.992-7.433,19.479-13.404c10.381-13.817,12.179-29.762,12.585-42.11c0.468-14.155-6.411-24.428-13.063-34.363
				c-0.62-0.925-1.24-1.853-1.856-2.785C48.048,4.798,45.916,3.619,43.458,3.619L43.458,3.619z M30.858,86.136
				c-1.768-1.134-2.513-3.128-2.521-6.554l-0.012-4.966c-0.033-13.308-0.066-27.068,0.242-40.578
				c0.12-5.256,3.323-8.924,7.427-12.599c6.349,4.908,10.246,16.259,10.047,29.669C45.807,66.885,39.889,80.438,30.858,86.136
				L30.858,86.136z"/>
		</g>
	</g>
</g>
</svg>
